Coordinates
version=1
nRows=7
nColumns=40
inDegrees=yes

Units are S.I. units (second, meters, Newtons, ...)
Angles are in degrees.

endheader
time	pelvis_tilt	pelvis_list	pelvis_rotation	pelvis_tx	pelvis_ty	pelvis_tz	hip_flexion_r	hip_adduction_r	hip_rotation_r	knee_angle_r	knee_angle_r_beta	ankle_angle_r	subtalar_angle_r	mtp_angle_r	hip_flexion_l	hip_adduction_l	hip_rotation_l	knee_angle_l	knee_angle_l_beta	ankle_angle_l	subtalar_angle_l	mtp_angle_l	lumbar_extension	lumbar_bending	lumbar_rotation	arm_flex_r	arm_add_r	arm_rot_r	elbow_flex_r	pro_sup_r	wrist_flex_r	wrist_dev_r	arm_flex_l	arm_add_l	arm_rot_l	elbow_flex_l	pro_sup_l	wrist_flex_l	wrist_dev_l
     45.41214286	     -8.42533389	     -3.72720239	      4.63753451	      1.03664109	      0.91350060	      0.46139011	      4.67121278	      2.13818298	    -14.67112349	     15.37073207	     15.37073207	     19.86159325	     -1.50315747	      0.04315899	     35.75157690	     -4.48441614	      0.69210994	     18.02171883	     18.02171883	      7.01237684	     -6.17763620	      8.54272833	    -10.81448921	      2.10836896	      2.43763266	     41.22009533	    -13.39808989	     11.45438247	    105.34157802	     44.23087181	      0.00000000	      0.00000000	     -6.80704847	     -5.40042742	    -10.72016084	     33.03163337	     46.79304771	      0.00000000	      0.00000000
     45.42428571	     -8.42062335	     -3.86814558	      4.52827862	      1.03878418	      0.91203824	      0.46001800	      4.04518404	      2.21300176	    -14.58409760	     15.46971456	     15.46971456	     20.25369489	     -1.32032924	     -0.07714012	     35.53644358	     -4.53002038	     -0.02938544	     18.24307988	     18.24307988	      6.05704044	     -6.29479116	      8.49332804	    -10.58283144	      2.28559766	      2.68723262	     40.36055009	    -12.81457468	     11.85207745	    105.09521161	     44.22608836	      0.00000000	      0.00000000	     -6.54121478	     -5.54402684	    -10.75166707	     33.20670951	     46.79771033	      0.00000000	      0.00000000
     45.43642857	     -8.40107465	     -3.96834345	      4.40519030	      1.04111004	      0.91072183	      0.45858043	      3.38538696	      2.22335374	    -14.54279491	     15.56889619	     15.56889619	     20.62608678	     -1.03670521	     -0.18242777	     35.30064514	     -4.57889224	     -0.65448352	     18.70712452	     18.70712452	      5.01838547	     -6.46481379	      8.17605075	    -10.35102565	      2.35928364	      2.88283574	     39.25626798	    -12.27065778	     12.27938630	    104.63365066	     44.22642811	      0.00000000	      0.00000000	     -6.28795796	     -5.73749806	    -10.79428046	     33.41626194	     46.80332215	      0.00000000	      0.00000000
     45.44857143	     -8.42649278	     -4.07696238	      4.33850172	      1.04332731	      0.90961031	      0.45685283	      2.80827537	      2.21742995	    -14.47398885	     15.71243443	     15.71243443	     20.90927739	     -0.89734543	     -0.28578406	     35.07034372	     -4.60772392	     -1.09392811	     19.20484468	     19.20484468	      4.03492515	     -6.63207472	      8.18772809	    -10.19553379	      2.54805283	      2.91901232	     38.47510426	    -12.00582587	     12.54773845	    104.31699712	     44.22608272	      0.00000000	      0.00000000	     -6.02459689	     -5.92768841	    -10.82603215	     33.57235469	     46.81045053	      0.00000000	      0.00000000
     45.46071429	     -8.29319773	     -4.16247355	      4.18374098	      1.04609591	      0.90852988	      0.45507848	      2.10820484	      2.03218574	    -15.01395818	     16.10093739	     16.10093739	     21.42777887	      0.44754491	     -0.31527688	     34.52003617	     -4.63979565	     -1.17195547	     19.49548567	     19.49548567	      0.70348124	     -8.08248265	      1.11547477	     -9.94390148	      2.63607784	      2.46849679	     37.59340957	    -10.82550537	     13.46286551	    101.27330492	     44.33607864	      0.00000000	      0.00000000	     -6.42079250	     -6.14554965	    -11.07956699	     34.64911331	     46.78234896	      0.00000000	      0.00000000
     45.47285714	     -8.27611080	     -4.22475741	      4.06439213	      1.04843881	      0.90787381	      0.45323024	      1.65897930	      1.91439327	    -14.85132148	     16.57682688	     16.57682688	     21.55682080	      0.43047538	     -0.49277156	     34.40900586	     -4.63685375	     -1.05352167	     20.54259743	     20.54259743	      0.23155493	     -8.78456980	      0.83657989	     -9.76563527	      2.69951299	      2.80595182	     36.13535802	    -10.94557059	     13.95396969	    100.45623361	     44.34759578	      0.00000000	      0.00000000	     -5.93697945	     -6.37599942	    -11.18978115	     34.97031944	     46.79546677	      0.00000000	      0.00000000
     45.48500000	     -8.26465260	     -4.24793311	      3.93574979	      1.05065513	      0.90758283	      0.45127109	      1.38529851	      1.67680290	    -14.79123300	     17.35482863	     17.35482863	     21.57366602	      0.47597154	     -0.83128705	     34.26910811	     -4.59971493	     -0.85747302	     21.56976852	     21.56976852	      0.04011796	     -9.45317380	      0.54023325	     -9.63476068	      2.71069402	      3.07318495	     34.69361741	    -11.07260592	     14.40859097	     99.16357864	     44.37532915	      0.00000000	      0.00000000	     -5.41555693	     -6.58510633	    -11.27825996	     35.27298363	     46.80595202	      0.00000000	      0.00000000
